<svg xmlns="http://www.w3.org/2000/svg" width="344.177" height="112.295" viewBox="0 0 344.177 112.295"><g transform="translate(130.801 10.528)"><path d="M1823.491,144.905a6.5,6.5,0,0,1,2.837,2.593,8.612,8.612,0,0,1,0,8.007,6.477,6.477,0,0,1-2.837,2.609,9.788,9.788,0,0,1-4.346.905h-4.332v6.091h-3.564V144h7.9A9.785,9.785,0,0,1,1823.491,144.905Zm-.973,9.71a4.6,4.6,0,0,0,0-6.213,5.127,5.127,0,0,0-3.537-1.085h-4.167V155.7h4.167A5.126,5.126,0,0,0,1822.518,154.615Z" transform="translate(-1809.633 -144)" fill="#284a67"/><path d="M2048.411,160.225h-9.6l-1.892,4.885h-3.674l8.636-21.11h3.509l8.663,21.11h-3.729Zm-1.179-3.076-3.619-9.229-3.591,9.229Z" transform="translate(-2015.403 -144)" fill="#284a67"/><path d="M2372.052,144v21.11h-2.934l-10.583-14.295V165.11H2355V144h2.933l10.583,14.295V144Z" transform="translate(-2313.63 -144)" fill="#284a67"/><path d="M2640.531,160.225h-9.6l-1.892,4.885h-3.674l8.636-21.11h3.509l8.664,21.11h-3.729Zm-1.179-3.076-3.619-9.229-3.591,9.229Z" transform="translate(-2564.234 -144)" fill="#284a67"/><path d="M2964.748,165.11l-.027-13.993-6.306,11.58h-1.59l-6.306-11.4V165.11h-3.4V144h2.933l7.621,13.993L2965.159,144h2.934l.028,21.11Z" transform="translate(-2862.461 -144)" fill="#284a67"/><path d="M3287.031,160.225h-9.595l-1.892,4.885h-3.674l8.636-21.11h3.509l8.663,21.11h-3.729Zm-1.179-3.076-3.619-9.229-3.591,9.229Z" transform="translate(-3163.469 -144)" fill="#284a67"/><path d="M1792.406,636.4a8.7,8.7,0,0,1-3.276-1.84l1.233-3.046a9.52,9.52,0,0,0,2.892,1.674,9.663,9.663,0,0,0,3.441.648,5.507,5.507,0,0,0,3.193-.754,2.337,2.337,0,0,0,1.056-1.99,2.022,2.022,0,0,0-.589-1.493,4.065,4.065,0,0,0-1.494-.92q-.9-.332-2.467-.755a26.756,26.756,0,0,1-3.55-1.146,5.873,5.873,0,0,1-2.331-1.794,5.161,5.161,0,0,1-.973-3.3,5.833,5.833,0,0,1,3.468-5.458,9.711,9.711,0,0,1,4.263-.844,12.619,12.619,0,0,1,3.455.482,9.143,9.143,0,0,1,2.933,1.389l-1.124,3.046a10.592,10.592,0,0,0-2.632-1.236,9.015,9.015,0,0,0-2.659-.422,5.158,5.158,0,0,0-3.139.784,2.49,2.49,0,0,0-1.028,2.081,1.969,1.969,0,0,0,.589,1.478,4.156,4.156,0,0,0,1.494.905q.905.332,2.468.754a24.26,24.26,0,0,1,3.509,1.131,6.047,6.047,0,0,1,2.344,1.791,5.044,5.044,0,0,1,.973,3.256,5.776,5.776,0,0,1-3.481,5.428,9.836,9.836,0,0,1-4.277.845A13.423,13.423,0,0,1,1792.406,636.4Z" transform="translate(-1789.13 -580.918)" fill="#284a67"/><path d="M2065.264,637.323v3.29H2050.87V619.5h14.01v3.29h-10.446v5.489h9.267v3.227h-9.267v5.82Z" transform="translate(-2031.735 -584.737)" fill="#284a67"/><path d="M2283.91,635.725h-9.6l-1.891,4.885h-3.674l8.635-21.11h3.509l8.663,21.11h-3.729Zm-1.178-3.076-3.619-9.229-3.592,9.229Z" transform="translate(-2233.686 -584.737)" fill="#284a67"/><path d="M2594.064,622.787v6.423h9.267v3.318h-9.267v8.082H2590.5V619.5h14.009v3.29Z" transform="translate(-2531.913 -584.737)" fill="#284a67"/><path d="M2799.911,635.725h-9.6l-1.891,4.885h-3.674l8.636-21.11h3.509l8.663,21.11h-3.729Zm-1.179-3.076-3.619-9.229-3.591,9.229Z" transform="translate(-2711.962 -584.737)" fill="#284a67"/><path d="M3119.046,640.61l-3.92-6.182a6.773,6.773,0,0,1-.741.03h-4.332v6.152h-3.564V619.5h7.9a9.785,9.785,0,0,1,4.346.905,6.511,6.511,0,0,1,2.837,2.593,7.813,7.813,0,0,1,.987,4.011,7.681,7.681,0,0,1-1.056,4.1,6.412,6.412,0,0,1-3.029,2.564l4.414,6.936Zm-1.288-16.708a5.125,5.125,0,0,0-3.537-1.085h-4.167v8.416h4.167a5.081,5.081,0,0,0,3.537-1.1,4.011,4.011,0,0,0,1.206-3.122A3.969,3.969,0,0,0,3117.758,623.9Z" transform="translate(-3010.18 -584.737)" fill="#284a67"/><path d="M3398.753,637.323v3.29H3384.36V619.5h14.011v3.29h-10.447v5.489h9.267v3.227h-9.267v5.82Z" transform="translate(-3267.735 -584.737)" fill="#284a67"/><path d="M3651.917,640.61l-3.92-6.182a6.767,6.767,0,0,1-.74.03h-4.332v6.152h-3.564V619.5h7.9a9.785,9.785,0,0,1,4.345.905,6.51,6.51,0,0,1,2.837,2.593,7.81,7.81,0,0,1,.987,4.011,7.681,7.681,0,0,1-1.056,4.1,6.412,6.412,0,0,1-3.029,2.564l4.414,6.936Zm-1.288-16.708a5.125,5.125,0,0,0-3.537-1.085h-4.167v8.416h4.167a5.081,5.081,0,0,0,3.537-1.1,4.011,4.011,0,0,0,1.206-3.122A3.964,3.964,0,0,0,3650.628,623.9Z" transform="translate(-3504.092 -584.737)" fill="#284a67"/><path d="M3898.386,636.4a8.7,8.7,0,0,1-3.276-1.84l1.235-3.046a9.522,9.522,0,0,0,2.892,1.674,9.665,9.665,0,0,0,3.441.648,5.508,5.508,0,0,0,3.193-.754,2.337,2.337,0,0,0,1.056-1.99,2.022,2.022,0,0,0-.589-1.493,4.066,4.066,0,0,0-1.494-.92q-.9-.332-2.468-.754a26.75,26.75,0,0,1-3.55-1.146,5.873,5.873,0,0,1-2.335-1.794,5.161,5.161,0,0,1-.973-3.3,5.834,5.834,0,0,1,3.468-5.458,9.711,9.711,0,0,1,4.263-.844,12.616,12.616,0,0,1,3.455.482,9.142,9.142,0,0,1,2.933,1.389l-1.124,3.046a10.591,10.591,0,0,0-2.632-1.236,9.012,9.012,0,0,0-2.659-.422,5.159,5.159,0,0,0-3.139.784,2.491,2.491,0,0,0-1.028,2.081,1.969,1.969,0,0,0,.589,1.478,4.153,4.153,0,0,0,1.494.905q.9.332,2.467.754a24.264,24.264,0,0,1,3.509,1.131,6.047,6.047,0,0,1,2.347,1.791,5.038,5.038,0,0,1,.973,3.256,5.777,5.777,0,0,1-3.481,5.428,9.837,9.837,0,0,1-4.277.845A13.424,13.424,0,0,1,3898.386,636.4Z" transform="translate(-3741.145 -580.918)" fill="#284a67"/><path d="M1828.879,1120.231l-.028-13.994-6.306,11.581h-1.59l-6.305-11.4v13.812h-3.4V1099.12h2.934l7.622,13.994,7.484-13.994h2.934l.027,21.111Z" transform="translate(-1809.633 -1029.292)" fill="#284a67"/><path d="M2151.161,1115.345h-9.6l-1.892,4.886H2136l8.636-21.111h3.509l8.664,21.111h-3.729Zm-1.179-3.074-3.619-9.228-3.591,9.228Z" transform="translate(-2110.641 -1029.292)" fill="#284a67"/><path d="M2474.8,1099.12v21.111h-2.933l-10.583-14.295v14.295h-3.537V1099.12h2.934l10.583,14.295V1099.12Z" transform="translate(-2408.868 -1029.292)" fill="#284a67"/><path d="M2743.28,1115.345h-9.6l-1.891,4.886h-3.674l8.636-21.111h3.509l8.663,21.111H2745.2Zm-1.179-3.074-3.619-9.228-3.592,9.228Z" transform="translate(-2659.471 -1029.292)" fill="#284a67"/><path d="M3041.846,1105.615h3.372v8.414a10.43,10.43,0,0,1-3.454,1.99,12.144,12.144,0,0,1-4.058.694,10.152,10.152,0,0,1-5.291-1.4,9.927,9.927,0,0,1-3.7-3.875,12.259,12.259,0,0,1,0-11.158,9.9,9.9,0,0,1,3.715-3.875,10.272,10.272,0,0,1,5.332-1.4,10.684,10.684,0,0,1,4.387.877,8.674,8.674,0,0,1,3.318,2.564l-2.248,2.412a7.16,7.16,0,0,0-8.9-1.478,6.507,6.507,0,0,0-2.467,2.624,8.145,8.145,0,0,0-.891,3.86,8.024,8.024,0,0,0,.891,3.8,6.637,6.637,0,0,0,6.045,3.616,7.177,7.177,0,0,0,3.948-1.086Z" transform="translate(-2936.844 -1025.474)" fill="#284a67"/><path d="M3353.754,1116.943v3.29H3339.36V1099.12h14.01v3.29h-10.446v5.488h9.267v3.227h-9.267v5.82Z" transform="translate(-3226.025 -1029.292)" fill="#284a67"/><path d="M3611.989,1120.231l-.028-13.994-6.306,11.581h-1.59l-6.306-11.4v13.812h-3.4V1099.12h2.934l7.622,13.994,7.484-13.994h2.934l.027,21.111Z" transform="translate(-3462.382 -1029.292)" fill="#284a67"/><path d="M3970.624,1116.943v3.29H3956.23V1099.12h14.01v3.29H3959.8v5.488h9.267v3.227H3959.8v5.82Z" transform="translate(-3797.796 -1029.292)" fill="#284a67"/><path d="M4228.283,1099.12v21.111h-2.934l-10.583-14.295v14.295h-3.536V1099.12h2.933l10.583,14.295V1099.12Z" transform="translate(-4034.154 -1029.292)" fill="#284a67"/><path d="M4491.36,1102.438H4485v-3.318h16.285v3.318h-6.361v17.793h-3.564Z" transform="translate(-4287.909 -1029.292)" fill="#284a67"/></g><g transform="translate(14.037 14.043)"><path d="M335.138,332.342l-.1.11.1-.11.119-.134Zm-2.833,2.833-.133.12.134-.119.11-.1Zm-54.517-54.517-.119.134.12-.133Zm2.834,54.517-.11-.1.11.1.133.119Zm-2.833-2.833-.12-.133.119.134.1.11Zm57.349,0-.1.11.1-.11.119-.134Zm-2.833,2.833-.133.12.134-.119.11-.1Zm-51.683,0-.11-.1.11.1.133.119Zm-2.834-54.517-.119.134.12-.133Zm0,51.688-.12-.133.119.134.1.11Zm57.349,0-.1.11.1-.11.119-.134Zm-2.833,2.833-.133.12.134-.119.11-.1Zm-51.683,0-.11-.1.11.1.133.119Zm-2.834-54.517-.119.134.12-.133Zm0,51.688-.12-.133.119.134.1.11Zm57.349,0-.1.11.1-.11.119-.134Zm-2.833,2.833-.133.12.134-.119.11-.1Zm-51.683,0-.11-.1.11.1.133.119Zm-2.833-2.833-.12-.133.119.134.1.11Zm57.349,0-.1.11.1-.11.119-.134Zm-2.833,2.833-.133.12.134-.119.11-.1Zm-51.683,0-.11-.1.11.1.133.119Zm-2.833-2.833-.12-.133.119.134.1.11Zm57.349,0-.1.11.1-.11.119-.134Zm-2.833,2.833-.133.12.134-.119.11-.1Zm-51.683,0h0l.133.119Zm54.516-2.833-.1.11.1-.11.119-.134Zm-2.833,2.833-.133.12.134-.119.11-.1Zm-51.683,0h0l.133.119Zm54.516-2.833-.1.11.1-.11.119-.134Zm-2.833,2.833-.133.12.134-.119.11-.1Zm-51.683,0h0l.133.119Zm54.516-2.833-.1.11.1-.11.119-.134Zm-2.833,2.833-.133.12.134-.119.11-.1Zm2.833-2.833-.1.11.1-.11.119-.134Zm-2.833,2.833-.133.12.134-.119.11-.1Zm2.833-2.833h0l.119-.134Zm0,0h0l.119-.134Zm0,0h0l.119-.134Zm0,0h0l.119-.134Zm0,0h0l.119-.134Zm0,0h0l.119-.134Zm-7.494,10.562q.325-.189.646-.385l-.645.378Zm3.6-2.356q.409-.3.81-.605-.4.3-.809.6Zm1.058-5.374-.133.12.134-.119.11-.1Zm.766,3.966q.332-.271.658-.549l-.653.542Zm1.625-1.4q-.476.431-.966.848.489-.417.966-.847c.089-.08.177-.162.265-.243-.087.074-.175.154-.265.235Zm.439-5.4-.1.11.1-.11.119-.134Zm2.569,2.391c-.08.09-.161.178-.242.266.081-.088.162-.176.243-.265q.431-.477.847-.967-.413.482-.844.958Zm.855-.971q.279-.327.549-.658Zm1.351-1.673q.308-.4.605-.81-.3.406-.608.807Zm2.576-3.767q.2-.321.385-.646-.192.322-.387.643ZM270.06,285.32q.19-.325.385-.646Q270.249,285,270.06,285.32Zm2.356-3.6q.3-.409.605-.81Q272.713,281.308,272.416,281.717Zm1.407-1.824q.272-.333.549-.658Q274.093,279.561,273.823,279.893Zm1.4-1.626q-.43.477-.85.964.417-.489.848-.966c.08-.09.161-.178.242-.266C275.381,278.09,275.3,278.178,275.219,278.267Zm2.569,2.391-.119.134.12-.133Zm.439-5.4-.262.246.266-.242q.476-.431.966-.848-.489.413-.966.844Zm-.439,57.086-.12-.133.119.134.1.11Zm.439,5.4h0q.477.431.966.847-.486-.417-.963-.847Zm.967.851q.327.279.658.549Zm1.425-3.417-.11-.1.11.1.133.119Zm.248,4.768q.4.308.81.605-.406-.3-.807-.608Zm3.767,2.576q.322.2.646.385-.322-.192-.643-.388Zm0-72.037q.322-.2.646-.385-.322.186-.643.382Zm-3.767,2.576q.4-.308.81-.605-.406.295-.807.6Zm-1.673,1.345q.327-.278.658-.549Zm55.941,57.933-.1.11.1-.11.119-.134Zm-2.833,2.833-.133.12.134-.119.11-.1Zm2.833-2.833h0l.119-.134Zm0,0h0l.119-.134Zm0,0h0l.119-.134Zm0,0h0l.119-.134Zm0,0h0l.119-.134Zm0,0h0l.119-.134Zm-2.833,2.833-.133.12.134-.119.11-.1Zm2.833-2.833-.1.11.1-.11.119-.134Zm-2.833,2.833-.133.12.134-.119.11-.1Zm2.833-2.833-.1.11.1-.11.119-.134Zm-54.516,2.833h0l.133.119Zm51.683,0-.133.12.134-.119.11-.1Zm2.833-2.833-.1.11.1-.11.119-.134Zm-54.516,2.833h0l.133.119Zm51.683,0-.133.12.134-.119.11-.1Zm2.833-2.833-.1.11.1-.11.119-.134Zm-54.516,2.833h0l.133.119Zm51.683,0-.133.12.134-.119.11-.1Zm2.833-2.833-.1.11.1-.11.119-.134Zm-54.516,2.833h0l.133.119Zm51.683,0-.133.12.134-.119.11-.1Zm2.833-2.833-.1.11.1-.11.119-.134Zm-57.349,0-.12-.133.119.134.1.11Zm2.833,2.833-.11-.1.11.1.133.119Zm51.683,0-.133.12.134-.119.11-.1Zm2.833-2.833-.1.11.1-.11.119-.134Zm-57.349,0-.12-.133.119.134.1.11Zm2.833,2.833-.11-.1.11.1.133.119Zm51.683,0-.133.12.134-.119.11-.1Zm2.833-2.833-.1.11.1-.11.119-.134Zm-57.349,0-.12-.133.119.134.1.11Zm0-51.684-.119.134.12-.133Zm2.834,54.517-.11-.1.11.1.133.119Zm51.683,0-.133.12.134-.119.11-.1Zm2.833-2.833-.1.11.1-.11.119-.134Zm-57.349,0-.12-.133.119.134.1.11Zm0-51.684-.119.134.12-.133Zm2.834,54.517-.11-.1.11.1.133.119Zm51.683,0-.133.12.134-.119.11-.1Zm2.833-2.833-.1.11.1-.11.119-.134Z" transform="translate(-264.353 -264.397)" fill="#284a67"/><path d="M276.221,233.7c0-.216-.007-.431-.012-.646l-.007-.223c0-.113-.007-.226-.012-.339-.006-.146-.012-.288-.02-.433a42.013,42.013,0,0,0-1.964-10.787c-.037-.115-.073-.229-.113-.344s-.073-.227-.115-.342-.086-.247-.129-.371-.087-.246-.132-.366-.093-.254-.14-.379l-.091-.241c-.03-.08-.061-.161-.092-.241l-.094-.24c-.031-.08-.063-.159-.1-.238l-.1-.238c-.064-.157-.13-.316-.2-.473-.033-.078-.067-.156-.1-.234s-.067-.156-.1-.233a.01.01,0,0,1,0,0c-.068-.154-.136-.307-.205-.46-.106-.235-.215-.471-.325-.7q-.107-.224-.219-.447-.167-.343-.343-.683c-.038-.073-.073-.152-.116-.227q-.121-.232-.245-.464-.357-.667-.739-1.322l-.006-.011q-.19-.325-.385-.646l-.005-.009q-.13-.214-.262-.425-.406-.649-.833-1.282h0l-.285-.416c-.064-.093-.129-.186-.194-.278q-.121-.171-.243-.341c-.049-.069-.1-.137-.146-.2q-.3-.409-.605-.81V208.6q-.392-.512-.8-1.009-.271-.333-.549-.658h0q-.417-.489-.847-.966c-.08-.089-.162-.177-.243-.265q-.6-.653-1.225-1.278T262.61,203.2c-.088-.081-.176-.162-.265-.243q-.477-.431-.966-.847h0q-.327-.279-.658-.549-.5-.406-1.009-.8a.006.006,0,0,1-.005,0q-.4-.308-.81-.605c-.068-.05-.136-.1-.2-.146-.113-.082-.227-.162-.341-.243q-.138-.1-.278-.194-.208-.146-.416-.285h0q-.632-.428-1.282-.833l-.425-.262-.009,0q-.321-.2-.646-.385l-.011-.006q-.654-.382-1.322-.739-.231-.124-.464-.245l-.227-.117c-.227-.116-.455-.23-.684-.342l-.447-.219c-.233-.11-.469-.219-.7-.325q-.229-.1-.46-.205h0l-.233-.1-.234-.1c-.157-.067-.316-.132-.473-.2l-.238-.1-.238-.1-.24-.094-.241-.092-.241-.091-.379-.14-.366-.132c-.124-.043-.247-.087-.371-.129l-.342-.115c-.114-.037-.229-.073-.344-.113a42.011,42.011,0,0,0-10.787-1.964c-.146-.008-.292-.014-.433-.02l-.339-.012-.223-.007c-.215-.005-.43-.009-.646-.012h-.978c-.216,0-.431.007-.646.012l-.223.007-.339.012c-.146.006-.288.012-.433.02A42.011,42.011,0,0,0,221.2,194.1c-.115.037-.229.073-.344.113s-.227.073-.341.115-.248.086-.371.129l-.366.132-.379.14-.241.091-.241.092-.248.094-.238.1-.238.1q-.237.1-.474.2l-.233.1-.233.1h0c-.154.068-.307.136-.46.205q-.353.159-.7.325-.224.107-.447.219c-.229.112-.457.227-.684.342l-.227.117q-.232.121-.464.245-.667.358-1.322.739l-.011.006q-.325.19-.646.385l-.009,0q-.214.13-.425.262-.649.4-1.282.833h0c-.14.094-.278.189-.416.285l-.278.194-.341.243c-.069.049-.137.1-.2.146q-.409.3-.81.605s0,0-.005,0q-.512.392-1.009.8-.333.272-.658.549h0q-.489.417-.966.848l-.268.242q-.653.6-1.277,1.225t-1.222,1.274c-.081.088-.162.176-.242.266q-.434.476-.855.964h0q-.278.327-.549.658-.406.5-.8,1.009l0,.005q-.307.4-.605.81c-.05.068-.1.136-.146.2-.082.113-.162.227-.243.341-.066.092-.13.185-.194.278q-.146.207-.285.416h0q-.428.633-.833,1.282c-.088.142-.175.284-.262.425l-.005.009q-.194.322-.385.646l-.006.011q-.381.654-.739,1.322-.124.232-.245.464c-.039.073-.078.151-.116.227q-.174.338-.343.683-.109.219-.219.447c-.11.233-.219.469-.325.7q-.1.229-.205.46a.01.01,0,0,1,0,0c-.034.077-.067.155-.1.233s-.067.156-.1.234c-.067.157-.132.316-.2.473l-.1.238-.1.238c-.031.08-.063.16-.094.24s-.062.16-.092.241l-.091.241c-.047.126-.094.253-.14.379s-.088.246-.132.366-.086.247-.129.371-.077.229-.115.342-.073.229-.113.344a42.01,42.01,0,0,0-1.964,10.787c-.008.146-.014.292-.02.433-.005.113-.009.225-.012.339l-.007.223c-.005.215-.009.43-.012.646v.978c0,.216.007.431.012.646l.007.223c0,.113.007.226.012.339.006.146.012.288.02.433a42.011,42.011,0,0,0,1.964,10.787c.037.115.073.229.113.344s.073.227.115.342.086.247.129.371.087.246.132.366.093.254.14.379l.091.241c.03.08.061.161.092.241l.094.24c.031.08.063.159.1.238l.1.238c.065.157.13.316.2.473.033.078.067.156.1.234s.067.156.1.233a.01.01,0,0,1,0,0q.1.23.205.46c.106.235.215.471.325.7q.107.224.219.447.169.343.343.683c.038.073.073.152.116.227q.121.232.245.464.357.667.739,1.322l.006.011q.19.325.385.646l.005.009c.087.142.174.284.262.426q.406.649.833,1.282h0l.285.416c.064.093.129.186.194.278.08.114.161.228.243.341.049.069.1.137.146.2q.3.409.605.81s0,0,0,.005q.392.512.8,1.009.271.332.549.658h0q.417.489.847.966c.08.089.162.177.243.265q.6.652,1.225,1.278t1.277,1.225l.265.243h0q.476.431.966.848h0q.327.278.658.549.5.406,1.009.8h.005q.4.307.81.605c.068.05.136.1.2.146l.341.243q.138.1.278.194c.138.1.276.191.416.285h0q.633.428,1.282.833l.425.262.009,0q.322.2.646.385l.011.006q.654.38,1.322.739l.464.245.227.117c.227.116.455.23.684.341.146.073.3.146.447.219q.351.165.7.325c.153.069.306.137.46.205h0l.233.1.233.1.474.2.238.1.238.1.24.094.241.092.241.091.379.14.366.132c.124.043.247.087.371.129s.227.078.341.115.229.073.344.113a42.01,42.01,0,0,0,10.787,1.964c.146.008.292.014.433.02l.339.012.223.007c.215.005.43.01.646.012h.978c.216,0,.431-.007.646-.012l.223-.007c.113,0,.226-.007.339-.012.146-.006.288-.012.433-.02a42.01,42.01,0,0,0,10.787-1.964c.115-.037.229-.073.344-.113s.227-.073.342-.115.247-.086.371-.129l.366-.132.379-.14.241-.091.241-.092.24-.094.238-.1.238-.1c.157-.064.316-.13.473-.2l.234-.1.233-.1h0q.23-.1.46-.205c.235-.106.471-.215.7-.325.146-.073.3-.146.447-.219.229-.111.457-.226.684-.341l.227-.117q.232-.121.464-.245.667-.358,1.322-.739l.011-.006q.325-.19.646-.385l.009,0,.425-.262q.649-.405,1.282-.833h0l.416-.285.278-.194c.114-.081.228-.162.341-.243.069-.049.137-.1.2-.146q.409-.3.81-.605h.005q.512-.392,1.009-.8.332-.272.658-.549h0q.489-.417.966-.848c.09-.08.178-.161.266-.242q.652-.6,1.278-1.225t1.225-1.278c.081-.088.162-.176.242-.266q.431-.476.848-.966h0q.278-.327.549-.658.406-.5.8-1.009v-.005q.307-.4.605-.81c.05-.068.1-.136.146-.2l.243-.341c.066-.092.13-.185.194-.278q.146-.208.285-.416h0q.428-.632.833-1.282.132-.211.262-.425l.005-.009q.194-.321.385-.646l.006-.011q.38-.654.739-1.322.124-.231.245-.464c.039-.073.078-.151.116-.227q.175-.338.343-.683l.219-.447c.11-.233.219-.469.325-.7.069-.153.137-.306.205-.46a.011.011,0,0,1,0,0c.034-.077.067-.155.1-.233s.067-.156.1-.234c.067-.157.132-.316.2-.473l.1-.238.1-.238.094-.24c.031-.08.062-.16.092-.241l.091-.241c.047-.126.094-.253.14-.379s.088-.246.132-.366.087-.247.129-.371.078-.229.115-.342.073-.229.113-.344a42.012,42.012,0,0,0,1.964-10.787c.008-.146.014-.292.02-.433.005-.113.009-.225.012-.339l.007-.223c.005-.215.009-.43.012-.646v-.489C276.2,234.024,276.221,233.868,276.221,233.7Zm-3.509.763c0,.159,0,.317-.007.474,0,.086,0,.172-.005.257s0,.159-.007.239c-.005.154-.01.308-.017.461v.034c0,.088-.008.176-.012.265a38.2,38.2,0,0,1-1.891,10.122c-.034.1-.069.206-.1.309s-.073.219-.113.325q-.122.347-.249.69l-.146.395q-.073.2-.146.37c-.048.123-.1.246-.146.366-.034.082-.067.163-.1.244-.027.066-.054.132-.083.2l-.019.045c-.034.081-.073.162-.1.243s-.062.146-.1.219l-.027.062c-.065.146-.131.292-.2.442l-.094.2-.129.275-.1.211-.006.012q-.05.105-.1.211c-.034.073-.069.14-.1.21q-.1.21-.211.418-.213.415-.439.826l-.112.2q-.169.306-.343.609l-.117.2-.118.2c-.073.131-.155.26-.234.39l-.006.01c-.065.108-.131.215-.2.322l-.151.24c-.046.073-.093.146-.141.219l-.02.032c-.048.073-.1.146-.146.224q-.116.178-.235.355c-.037.056-.073.113-.113.17s-.083.121-.125.182-.1.151-.156.227l-.167.238c-.073.1-.146.205-.219.307-.091.126-.181.251-.274.376q-.62.839-1.284,1.644c-.1.114-.19.229-.287.343l-.012.014q-.121.146-.243.284l-.1.112-.236.269-.118.133-.119.134-.1.11h0q-.146.163-.3.324l-.028.029-.3.321-.007.007-.319.33c-.107.11-.219.219-.325.33s-.219.219-.33.325-.219.214-.33.319l-.007.007-.321.3-.029.028c-.107.1-.215.2-.324.3h0l-.11.1-.134.119-.133.118-.269.236c-.037.033-.073.064-.112.1l-.284.243-.014.012c-.114.1-.228.192-.343.287q-.8.664-1.644,1.284-.187.138-.376.274l-.306.219-.238.167c-.073.053-.151.105-.227.156l-.183.125-.17.113q-.176.118-.355.235l-.224.146-.032.02c-.073.048-.146.1-.219.141l-.24.151c-.107.067-.214.133-.322.2l-.01.006c-.13.079-.26.157-.39.234l-.2.118-.2.117q-.3.175-.609.343l-.2.112q-.41.219-.826.439-.208.107-.418.211c-.069.034-.14.073-.21.1l-.211.1-.012.006-.211.1-.275.129-.2.094c-.146.068-.292.134-.442.2l-.062.027c-.073.033-.146.064-.219.1l-.243.1-.045.019-.2.083-.244.1c-.122.05-.245.1-.366.146l-.37.146c-.124.049-.262.1-.395.146q-.343.127-.69.249l-.325.113-.309.1a38.228,38.228,0,0,1-10.122,1.891l-.265.012h-.034l-.461.017-.239.007-.257.005c-.158,0-.316.005-.474.007h-.547c-.159,0-.317,0-.474-.007l-.257-.005-.24-.007-.46-.017h-.034l-.264-.012a38.229,38.229,0,0,1-10.123-1.891l-.309-.1-.325-.113q-.347-.122-.69-.249l-.395-.146q-.2-.073-.37-.146l-.366-.146-.244-.1-.2-.083-.045-.019-.243-.1c-.073-.031-.146-.062-.219-.1l-.062-.027-.442-.2-.2-.094-.275-.129-.211-.1-.012-.006-.211-.1c-.073-.034-.14-.069-.21-.1-.14-.069-.279-.14-.417-.211q-.417-.213-.827-.439l-.2-.112q-.307-.169-.61-.343l-.2-.117-.2-.118c-.131-.073-.26-.155-.39-.234l-.01-.006c-.108-.065-.215-.131-.322-.2l-.24-.151c-.073-.046-.146-.093-.219-.141-.011-.007-.021-.014-.033-.02-.073-.049-.146-.1-.223-.146l-.355-.235-.17-.113-.183-.125-.227-.156-.238-.167-.306-.219q-.189-.136-.376-.274-.839-.62-1.644-1.284c-.115-.1-.229-.19-.342-.287l-.015-.012q-.146-.121-.284-.243l-.112-.1-.269-.236-.133-.118-.133-.119-.11-.1h0c-.109-.1-.219-.2-.324-.3l-.029-.028c-.107-.1-.215-.2-.321-.3l-.007-.007q-.165-.158-.33-.319c-.11-.107-.219-.219-.33-.325s-.219-.219-.325-.33l-.319-.33-.007-.007c-.1-.107-.2-.214-.3-.321l-.028-.029c-.1-.107-.2-.215-.3-.324h0l-.1-.11-.119-.134-.118-.133-.236-.269c-.033-.037-.064-.073-.1-.112q-.122-.141-.243-.284l-.012-.014c-.1-.114-.192-.229-.287-.343q-.663-.8-1.284-1.644c-.093-.125-.184-.25-.274-.376-.073-.1-.146-.2-.219-.307l-.167-.238c-.053-.073-.105-.151-.156-.227l-.125-.182c-.038-.056-.073-.113-.113-.17q-.118-.176-.235-.355l-.146-.224-.02-.032c-.048-.073-.1-.146-.141-.219l-.151-.24c-.067-.107-.133-.214-.2-.322l-.006-.01c-.079-.13-.157-.26-.234-.39l-.118-.2-.117-.2q-.174-.3-.343-.609l-.112-.2q-.219-.41-.439-.826-.107-.208-.211-.418c-.035-.069-.069-.14-.1-.21s-.073-.14-.1-.211l-.006-.012-.1-.211-.129-.275c-.032-.068-.063-.135-.094-.2-.068-.146-.134-.292-.2-.442l-.027-.062c-.032-.073-.064-.146-.1-.219s-.073-.162-.1-.243l-.02-.045c-.028-.066-.055-.132-.082-.2-.034-.081-.067-.162-.1-.244-.05-.122-.1-.245-.146-.366s-.1-.246-.146-.37-.1-.262-.146-.395q-.127-.343-.249-.69c-.038-.108-.073-.219-.113-.325s-.073-.206-.1-.309a38.2,38.2,0,0,1-1.891-10.122c0-.088-.009-.176-.012-.265V235.9c-.007-.153-.012-.307-.017-.461,0-.08-.005-.159-.007-.239s0-.172-.005-.257c0-.158-.005-.316-.007-.474v-.547c0-.159,0-.317.007-.474,0-.086,0-.172.005-.257s0-.159.007-.239c.005-.154.01-.308.017-.461v-.034c0-.088.007-.176.012-.265a38.207,38.207,0,0,1,2.482-11.778q.073-.183.142-.366c.057-.146.115-.292.175-.439.034-.082.067-.163.1-.244.027-.066.054-.132.082-.2l.02-.045c.034-.081.069-.162.1-.243s.063-.146.1-.219l.027-.062c.065-.146.131-.292.2-.442.031-.067.061-.135.094-.2l.129-.275.1-.211.006-.012q.05-.105.1-.211c.034-.073.068-.14.1-.21q.1-.21.211-.418.213-.415.439-.826l.112-.2q.169-.306.343-.609l.117-.2.118-.2c.073-.131.155-.26.234-.39l.006-.01c.065-.108.131-.215.2-.322l.151-.24c.046-.073.093-.146.141-.219l.02-.032.146-.224q.116-.178.235-.355c.037-.056.073-.113.113-.17l.125-.182c.051-.073.1-.152.156-.227l.167-.238c.073-.1.146-.205.219-.307.091-.126.181-.251.274-.376q.62-.839,1.284-1.644c.1-.114.19-.229.287-.343l.012-.014q.121-.146.243-.284l.1-.112.236-.269.118-.133.119-.134h0l.1-.11h0c.1-.109.2-.219.3-.324l.028-.029c.1-.107.2-.214.3-.321l.007-.007.319-.33c.107-.11.219-.219.325-.33s.219-.219.33-.325.219-.213.33-.319l.007-.007c.106-.1.214-.2.321-.3l.029-.028c.107-.1.215-.2.324-.3h0l.11-.1.133-.12.133-.118.269-.236c.037-.033.073-.064.112-.1l.284-.243.015-.012c.113-.1.227-.192.342-.287q.8-.663,1.644-1.285c.125-.092.25-.183.376-.273l.306-.219c.079-.056.159-.111.238-.167l.227-.156.183-.125.17-.113.355-.235.223-.146c.012-.006.022-.013.033-.02.073-.048.146-.1.219-.141l.24-.151c.107-.067.214-.133.322-.2l.01-.006c.13-.079.26-.157.39-.234l.2-.118.2-.117q.3-.174.61-.343l.2-.112q.41-.219.827-.439c.138-.073.278-.142.417-.211l.21-.1c.07-.034.14-.073.211-.1l.012-.006.211-.1.275-.129.2-.094c.146-.068.292-.134.442-.2l.062-.027c.073-.033.146-.064.219-.1l.243-.1.045-.019.2-.083.244-.1c.146-.06.292-.118.439-.175.121-.048.243-.1.366-.142a38.206,38.206,0,0,1,11.764-2.478l.264-.012h.034l.46-.017.24-.007.257-.005c.158,0,.316-.005.474-.007h.547c.159,0,.317,0,.474.007l.257.005.239.007c.154.005.308.01.461.017h.034l.265.012a38.206,38.206,0,0,1,11.778,2.482l.366.142c.146.057.292.115.439.175l.244.1.2.083.045.019.243.1c.073.031.146.062.219.1l.062.027.442.2.2.094.275.129.211.1.012.006.211.1c.073.034.14.069.21.1q.21.1.418.211.415.213.826.439l.2.112q.306.169.609.343l.2.117.2.118c.131.073.26.155.39.234l.01.006c.108.065.215.131.322.2l.24.151c.073.046.146.093.219.141l.032.02.224.146.355.235.17.113.183.125.227.156.238.167.306.219c.126.091.251.181.376.273q.839.621,1.644,1.285c.115.1.229.19.343.287l.014.012q.146.121.284.243l.112.1.269.236.133.118.133.12.11.1h0c.109.1.219.2.324.3l.029.028.321.3.007.007q.165.158.33.319c.11.107.219.219.33.325s.219.219.325.33l.319.33.007.007c.1.107.2.214.3.321l.028.029.3.324h0l.1.11.12.133.118.133.236.269c.033.037.064.073.1.112l.243.284.012.014c.1.114.192.229.287.343q.664.8,1.284,1.644c.093.125.184.25.274.376.073.1.146.2.219.307l.167.238c.053.073.105.151.156.227l.125.182c.038.056.073.113.113.17q.118.177.235.355.073.11.146.224l.02.032c.048.073.1.146.141.219l.151.24c.067.107.133.214.2.322l.006.01c.079.13.157.26.234.39l.118.2.117.2q.175.3.343.609l.112.2q.219.41.439.826.107.208.211.418c.034.069.073.14.1.21s.073.14.1.211l.006.012.1.211.129.275.094.2c.068.146.134.292.2.442l.027.062c.033.073.064.146.1.219s.073.162.1.243l.019.045c.029.066.056.132.083.2.034.081.067.162.1.244.06.146.118.292.175.439q.073.182.142.366a38.207,38.207,0,0,1,2.486,11.778c0,.088.009.176.012.265v.034c.007.153.012.307.017.461,0,.08.005.159.007.239s0,.172.005.257c0,.158.005.316.007.474v.273C272.716,234.288,272.712,234.377,272.712,234.467Z" transform="translate(-192 -192.09)" fill="#284a67"/><path d="M432.732,462.575q-.246.246-.485.5c.175-.182.352-.366.529-.542Zm-1.755,1.911q.614-.726,1.268-1.412-.655.687-1.268,1.412Zm-.545.663h0c.05-.063.1-.125.146-.187-.046.063-.1.125-.145.187Zm2.3-2.574q-.246.246-.485.5c.175-.182.352-.366.529-.542Zm-1.755,1.911q.614-.726,1.268-1.412-.654.687-1.267,1.412Zm-.545.663h0c.05-.063.1-.125.146-.187-.045.063-.1.125-.145.187Zm45.053,43.845q.726-.612,1.412-1.268-.685.655-1.411,1.268Zm-.664.545h0c.062-.049.124-.1.186-.146Zm-42.089-46.963q-.246.246-.485.5c.175-.182.352-.366.529-.542Zm-1.755,1.911q.614-.726,1.268-1.412-.655.687-1.268,1.412Zm-.545.663h0c.05-.063.1-.125.146-.187-.046.063-.1.125-.145.187Zm2.3-2.574q-.246.246-.485.5c.175-.182.352-.366.529-.542Zm-1.755,1.911q.614-.726,1.268-1.412-.654.687-1.267,1.412Zm-.545.663h0c.05-.063.1-.125.146-.187-.045.063-.1.125-.145.187Zm2.3-2.574q-.246.246-.485.5c.175-.182.352-.366.529-.542Zm-1.755,1.911q.614-.726,1.268-1.412-.654.687-1.266,1.412Zm-.545.663h0c.05-.063.1-.125.146-.187-.045.063-.1.125-.144.187Zm2.3-2.574q-.246.246-.485.5c.175-.182.352-.366.529-.542Zm-1.755,1.911q.614-.726,1.268-1.412-.653.687-1.266,1.412Zm-.545.663h0c.05-.063.1-.125.146-.187-.044.063-.094.125-.143.187Zm44.389,44.389h0c.062-.049.124-.1.186-.146Zm.664-.545q.726-.612,1.412-1.268-.684.655-1.41,1.268Zm-42.751-46.419q-.246.246-.485.5c.175-.182.352-.366.529-.542Zm-1.755,1.911q.614-.726,1.268-1.412-.655.687-1.268,1.412Zm-.545.663h0c.05-.063.1-.125.146-.187-.046.063-.1.125-.145.187Zm45.053,43.845q.726-.612,1.412-1.268-.686.655-1.412,1.268Zm-.664.545h0c.062-.049.124-.1.186-.146Zm-44.389-44.389h0c.05-.063.1-.125.146-.187C430.532,465.024,430.482,465.087,430.433,465.149Zm.545-.663q.614-.726,1.268-1.412Q431.591,463.76,430.978,464.486Zm1.755-1.911q-.246.246-.485.5c.175-.182.352-.366.529-.542Zm-2.3,2.574h0c.05-.063.1-.125.146-.187-.047.063-.1.125-.147.187Zm.545-.663q.614-.726,1.268-1.412-.656.687-1.269,1.412Zm1.755-1.911q-.246.246-.485.5c.175-.182.352-.366.529-.542Zm-2.3,2.574h0c.05-.063.1-.125.146-.187-.048.063-.1.125-.148.187Zm.545-.663q.614-.726,1.268-1.412-.657.687-1.27,1.412Zm1.755-1.911q-.246.246-.485.5c.175-.182.352-.366.529-.542Zm-2.3,2.574h0c.05-.063.1-.125.146-.187-.049.063-.1.125-.148.187Zm.545-.663q.614-.726,1.268-1.412-.658.687-1.271,1.412Zm1.755-1.911q-.246.246-.485.5c.175-.182.352-.366.529-.542Zm42.09,46.963h0c.062-.049.124-.1.186-.146Zm.664-.545q.726-.612,1.412-1.268-.689.655-1.415,1.268Zm-45.056-43.845h0c.05-.063.1-.125.146-.187C430.532,465.024,430.482,465.087,430.433,465.149Zm.545-.663q.614-.726,1.268-1.412Q431.591,463.76,430.978,464.486Zm1.755-1.911q-.246.246-.485.5c.175-.182.352-.366.529-.542Zm-2.3,2.574h0c.05-.063.1-.125.146-.187-.047.063-.1.125-.147.187Zm.545-.663q.614-.726,1.268-1.412-.656.687-1.269,1.412Zm1.755-1.911q-.246.246-.485.5c.175-.182.352-.366.529-.542Z" transform="translate(-412.999 -442.759)" fill="#284a67"/><path d="M358.286,322.624v-.156c0-.073,0-.151-.005-.226s0-.151-.007-.225,0-.157-.008-.235l-.009-.215c0-.1-.01-.2-.015-.3s-.01-.2-.017-.3q-.024-.407-.059-.813c-.011-.14-.024-.279-.037-.417v0c-.012-.126-.025-.252-.039-.378s-.028-.252-.042-.378a35.091,35.091,0,0,0-.907-4.783c-.032-.121-.064-.241-.1-.362-.021-.078-.042-.155-.064-.232q-.067-.238-.137-.475c-.053-.178-.107-.355-.163-.532s-.118-.366-.178-.55q-.154-.463-.321-.921l-.015-.042-.073-.2q-.073-.2-.153-.4c-.026-.067-.051-.132-.077-.2-.053-.133-.105-.265-.16-.4s-.108-.263-.164-.394q-.166-.393-.342-.783l-.171-.374q-.139-.3-.282-.59-.091-.185-.184-.366-.191-.379-.392-.754c-.1-.187-.2-.374-.306-.559l-.005-.01-.2-.359-.107-.184c-.036-.061-.073-.122-.107-.184l-.109-.182q-.49-.82-1.024-1.613-.608-.9-1.276-1.768c-.1-.134-.207-.266-.311-.4q-.213-.268-.431-.532c-.069-.083-.137-.165-.206-.247l-.127-.151c-.073-.083-.14-.165-.211-.246h0q-.137-.158-.276-.315h0l-.073-.084-.073-.085-.047-.051-.073-.079-.022-.024c-.09-.1-.18-.2-.271-.292l-.008-.009q-.141-.153-.285-.3c-.1-.1-.194-.2-.292-.3s-.2-.2-.292-.3-.2-.2-.3-.292-.2-.2-.3-.292-.2-.191-.3-.285l-.009-.008c-.1-.091-.2-.181-.292-.271a.2.2,0,0,1-.024-.022l-.079-.073-.051-.047-.085-.073-.084-.073h0l-.315-.276c-.081-.073-.164-.141-.246-.211-.05-.043-.1-.085-.151-.127q-.123-.1-.247-.205-.265-.219-.532-.431c-.132-.1-.265-.208-.4-.311q-.865-.667-1.768-1.276-.792-.535-1.613-1.023l-.182-.109-.184-.107-.184-.107q-.178-.1-.359-.2l-.01-.005c-.186-.1-.372-.205-.559-.306-.249-.134-.5-.265-.755-.392l-.366-.184c-.2-.1-.393-.19-.59-.282l-.374-.171q-.389-.176-.783-.342-.2-.083-.394-.164t-.428-.182l-.2-.078c-.133-.052-.267-.1-.4-.153l-.2-.073-.042-.015q-.458-.168-.921-.321c-.183-.061-.366-.121-.55-.178s-.354-.11-.532-.163c-.158-.047-.316-.092-.475-.137a34.981,34.981,0,0,0-6.555-1.188q-.406-.035-.813-.059l-.3-.018-.3-.014-.215-.009-.235-.008-.225-.007-.226-.005h-.156c-.174,0-.349,0-.523,0s-.349,0-.523,0h-.157l-.226.005c-.073,0-.151,0-.225.007s-.157,0-.235.008l-.215.009-.3.014a34.975,34.975,0,0,0-9.226,1.744q-.463.154-.92.321l-.042.015-.2.073c-.134.05-.268.1-.4.153l-.2.078q-.2.077-.4.16l-.394.164q-.393.165-.783.342l-.374.171c-.2.092-.394.187-.59.282l-.37.184c-.252.127-.5.258-.754.392-.187.1-.374.2-.559.306l-.01.005-.359.2-.184.108-.184.107-.182.109q-.82.491-1.613,1.024-.9.608-1.767,1.276-.2.154-.4.311l-.373.3c-.19.156-.378.312-.565.472s-.371.319-.556.483h0l-.169.151c-.048.042-.1.086-.146.129h0q-.156.14-.309.284h0c-.1.1-.2.192-.306.292h0l-.3.292h0c-.1.1-.2.2-.3.292s-.2.2-.292.3-.2.2-.292.3-.191.2-.285.3l-.008.009c-.091.1-.181.2-.271.292l-.022.024-.118.13-.073.085-.073.084h0l-.292.323-.211.246-.127.151c-.069.082-.137.164-.206.247q-.219.264-.431.532c-.1.132-.208.265-.311.4q-.667.865-1.276,1.768-.534.792-1.024,1.613l-.109.182-.107.186c-.036.061-.073.123-.106.184q-.1.178-.2.359l-.005.01c-.1.186-.205.372-.306.559q-.2.375-.391.754l-.184.366q-.144.294-.282.59c-.057.124-.115.249-.171.374q-.176.389-.342.783-.083.2-.165.394c-.054.132-.107.265-.159.4l-.077.2q-.078.2-.153.4l-.073.2-.015.042q-.168.458-.321.921c-.061.183-.121.366-.178.55s-.11.354-.163.532q-.073.237-.137.475c-.022.078-.043.154-.064.232-.034.121-.066.241-.1.362-.021.079-.041.157-.061.236-.033.129-.066.259-.1.389s-.061.257-.091.386c-.053.227-.1.455-.151.684h0q-.073.343-.137.687v0q-.055.292-.106.59h0c-.022.131-.044.263-.065.4q-.037.228-.069.456c-.013.086-.026.174-.037.26s-.026.186-.037.279c-.018.137-.035.276-.051.413s-.029.251-.043.378-.026.252-.039.378v0q-.02.208-.037.417-.035.406-.059.813c-.007.1-.012.2-.017.3s-.01.2-.015.3l-.009.215c0,.078-.006.156-.008.235s-.005.15-.007.225,0,.146-.005.226v.156c0,.174,0,.349,0,.523s0,.349,0,.523v.156c0,.073,0,.151.005.226s0,.151.007.225,0,.157.008.235l.009.215c0,.1.009.2.015.3s.01.2.017.3q.024.407.059.813.018.21.037.417v0c.012.126.025.252.039.378s.028.252.043.378.033.276.051.413a35.018,35.018,0,0,0,.855,4.37c.032.121.064.241.1.362.021.078.042.155.064.232q.067.238.137.475c.053.178.107.355.163.532s.118.366.178.55q.154.463.321.921l.015.042.073.2q.073.2.153.4l.077.2c.053.133.105.265.159.4s.109.263.164.394q.165.393.342.783c.056.124.114.249.171.374.093.2.186.394.282.59q.091.185.184.366.191.379.391.754c.1.187.2.374.306.559l.005.01q.1.18.2.359c.035.061.073.123.106.184l.107.184.109.182q.491.82,1.024,1.613.61.9,1.276,1.768c.1.134.206.266.311.4s.2.249.3.373q.232.285.471.565c.159.187.32.371.483.556h0l.151.169.032.035.032.035.065.073h0q.14.156.284.309h0q.146.154.288.306h0l.292.3h0c.1.1.2.2.292.3s.2.2.3.292h0l.3.292h0c.1.1.2.192.306.292h0q.152.146.309.284h0l.073.064.035.033.035.032.169.151h0c.184.163.366.324.556.483s.375.316.565.472l.373.3c.125.1.265.208.4.311q.864.667,1.767,1.276.792.535,1.613,1.024l.182.109.184.107.184.107.359.2.01.005c.186.1.372.205.559.306.249.134.5.265.754.392l.37.184q.294.143.59.281l.374.172q.389.177.783.342.2.083.394.164c.132.055.265.107.4.16l.2.077c.133.052.267.1.4.153l.2.073.042.015q.458.167.92.321c.183.061.366.121.55.178s.354.11.532.163q.237.073.475.137l.232.064.362.1a34.891,34.891,0,0,0,4.37.855l.413.052.378.042.378.039h0l.417.037q.406.035.813.059l.3.018.3.014.215.009c.078,0,.157.006.235.008l.225.007.226.005h1.36l.226-.005c.073,0,.151,0,.225-.007s.157,0,.235-.008l.215-.009.3-.014.3-.018q.407-.024.813-.059l.417-.037h0l.378-.039.378-.042c.137-.017.276-.034.413-.052a34.893,34.893,0,0,0,4.37-.855l.362-.1.232-.064q.238-.067.475-.137c.178-.053.355-.107.532-.163s.366-.118.55-.178q.463-.154.921-.321l.042-.015.2-.073c.134-.05.268-.1.4-.153l.2-.077c.133-.053.265-.105.4-.16s.263-.108.394-.164q.393-.166.783-.342l.374-.172c.2-.092.394-.186.59-.281q.185-.091.366-.184c.253-.127.505-.258.754-.392.187-.1.374-.2.559-.306l.01-.005.359-.2.184-.107.184-.107.182-.109q.82-.49,1.613-1.024.9-.608,1.768-1.276c.134-.1.266-.206.4-.311s.249-.2.373-.3l.2-.167q.2-.168.4-.338c.067-.056.133-.113.2-.171h0q.158-.137.315-.276h0l.084-.073.085-.073.051-.047.079-.073.024-.022c.1-.09.2-.18.292-.271l.009-.008q.153-.141.3-.285c.1-.1.2-.194.3-.292s.2-.2.3-.292.2-.2.292-.3h0l.292-.3h0l.292-.306h0q.146-.153.284-.309h0l.064-.073.033-.035.032-.035.151-.169h0c.162-.184.323-.366.482-.556s.316-.375.472-.565c.1-.124.2-.248.3-.373s.208-.265.311-.4q.667-.865,1.276-1.768.535-.792,1.023-1.613l.109-.182c.037-.061.073-.123.107-.184l.107-.184.2-.359.005-.01c.1-.186.205-.372.306-.559q.2-.375.392-.754l.184-.366q.143-.292.282-.59l.171-.374q.177-.389.342-.783.083-.2.164-.394c.055-.132.107-.265.16-.4.026-.067.052-.132.077-.2q.078-.2.153-.4l.073-.2.015-.042q.167-.458.321-.921c.061-.183.121-.366.178-.55s.11-.354.163-.532q.073-.237.137-.475c.022-.077.043-.154.064-.232.034-.121.066-.241.1-.362a34.893,34.893,0,0,0,.855-4.37c.018-.137.035-.276.052-.413s.029-.251.042-.378.026-.252.039-.378v0c.013-.139.026-.278.037-.417q.035-.406.059-.813c.007-.1.012-.2.017-.3s.01-.2.015-.3l.009-.215c0-.078.006-.156.008-.235s.005-.15.007-.225,0-.146.005-.226v-.68C358.25,322.974,358.286,322.8,358.286,322.624Zm-3.509.743c0,.131,0,.262-.005.393q-.008.424-.027.846c-.011.246-.026.491-.042.731v.036c-.007.113-.015.226-.025.34l-.022.261-.022.236-.022.219c-.007.069-.015.137-.022.206l-.022.193c-.015.124-.03.249-.045.373-.015.108-.029.219-.044.325a30.989,30.989,0,0,1-1.034,4.739c-.036.118-.073.236-.109.355-.021.064-.041.129-.062.194s-.045.138-.067.207-.049.146-.073.219c-.056.163-.111.325-.169.487q-.094.265-.194.53c-.073.184-.14.366-.213.548-.044.11-.088.219-.132.328s-.09.219-.136.327-.093.219-.14.325a.007.007,0,0,0,0,0q-.151.347-.312.69c0,.009-.009.018-.012.027q-.077.165-.156.328a31.548,31.548,0,0,1-2.28,3.966q-.211.313-.43.62-.439.618-.909,1.215c-.029.037-.057.073-.087.11l-.088.11-.146.187-.152.185-.243.292q-.614.726-1.268,1.412h0c-.175.182-.351.366-.529.542s-.36.355-.542.529h0q-.686.658-1.412,1.268l-.292.243-.185.152c-.062.05-.124.1-.186.146h0l-.11.088-.11.087q-.6.469-1.215.909-.308.219-.62.43a31.5,31.5,0,0,1-3.966,2.28q-.164.08-.328.156l-.027.012q-.344.16-.69.312h0l-.325.14c-.105.045-.219.091-.327.136s-.219.089-.328.132c-.182.073-.366.146-.548.213s-.353.131-.53.194-.324.113-.487.169l-.219.073-.207.067-.194.062-.355.109a30.991,30.991,0,0,1-4.748,1.047l-.325.044-.373.045-.193.022-.206.022-.219.022-.236.022-.261.022c-.114.009-.227.018-.341.025h-.035c-.243.016-.488.031-.731.042-.281.012-.563.022-.846.027-.131,0-.262,0-.393.005h-.439c-.132,0-.262,0-.393-.005-.283-.005-.565-.015-.846-.027-.246-.011-.491-.026-.731-.042h-.035c-.114-.007-.227-.015-.341-.025l-.261-.022-.236-.022-.219-.022-.206-.022-.193-.022-.373-.045c-.108-.015-.219-.029-.325-.044a30.99,30.99,0,0,1-4.739-1.034l-.355-.109-.194-.062-.207-.067-.219-.073c-.163-.056-.325-.111-.487-.169s-.354-.127-.53-.194-.366-.14-.548-.213l-.328-.132c-.109-.045-.219-.09-.326-.136s-.219-.093-.325-.14h0q-.347-.151-.69-.312l-.027-.012q-.164-.077-.328-.156a31.5,31.5,0,0,1-3.966-2.28q-.313-.211-.62-.43-.619-.439-1.215-.909l-.11-.087-.11-.088-.187-.146-.185-.152-.292-.243q-.726-.614-1.412-1.268h0c-.182-.175-.366-.351-.542-.529s-.355-.36-.529-.542h0q-.658-.686-1.268-1.412l-.243-.292c-.051-.061-.1-.123-.151-.185s-.1-.125-.146-.187l-.088-.11c-.029-.037-.059-.073-.087-.11q-.469-.6-.909-1.215c-.146-.2-.292-.412-.43-.62a31.556,31.556,0,0,1-2.28-3.966q-.08-.164-.156-.328c0-.009-.008-.018-.012-.027q-.16-.344-.312-.69a.006.006,0,0,0,0,0l-.14-.325c-.045-.105-.091-.219-.136-.327s-.088-.219-.133-.328c-.073-.182-.143-.366-.212-.548s-.131-.353-.194-.53q-.087-.242-.169-.487c-.025-.073-.05-.146-.073-.219s-.045-.138-.067-.207-.042-.13-.062-.194c-.037-.118-.073-.236-.109-.355a30.992,30.992,0,0,1-1.055-4.744c-.015-.108-.029-.219-.043-.325-.016-.124-.031-.249-.046-.373l-.022-.193c-.007-.069-.015-.137-.022-.206l-.022-.219-.022-.236-.022-.261c-.009-.114-.018-.227-.025-.34v-.036q-.025-.366-.042-.731c-.012-.281-.022-.563-.027-.846,0-.131,0-.262-.005-.393v-.439c0-.131,0-.262.005-.393.005-.283.015-.564.027-.846q.017-.366.042-.731v-.036c.007-.113.016-.226.025-.34l.022-.261c.009-.1.019-.2.029-.3.012-.124.025-.249.039-.373v-.009c.015-.127.029-.254.045-.382.014-.111.028-.219.042-.333.012-.091.025-.182.038-.273a30.889,30.889,0,0,1,.839-4l.079-.28c.026-.093.058-.2.088-.3.036-.119.073-.239.11-.358.045-.143.091-.286.137-.428.026-.08.053-.16.08-.241.054-.159.109-.319.166-.477.063-.177.128-.354.194-.53s.14-.366.212-.548c.045-.11.089-.219.133-.328s.09-.219.136-.327.093-.219.14-.325a.006.006,0,0,0,0,0q.151-.347.312-.69c0-.009.009-.018.012-.027q.077-.165.156-.328A31.554,31.554,0,0,1,297,305.5c.14-.208.283-.415.43-.62q.439-.618.909-1.215c.028-.037.057-.073.087-.11l.088-.11h0c.049-.062.1-.124.151-.186s.1-.124.151-.185l.243-.292q.612-.726,1.268-1.412h0q.239-.251.485-.5l.045-.045c.178-.178.36-.355.542-.529h0q.686-.658,1.412-1.268l.292-.243.185-.152.187-.146.11-.088.11-.087q.6-.469,1.215-.909.308-.219.62-.43a31.5,31.5,0,0,1,3.966-2.28q.164-.08.328-.156l.027-.012q.344-.16.69-.312h0l.325-.14c.105-.045.219-.091.326-.136s.219-.089.328-.132c.182-.073.366-.146.548-.213s.353-.131.53-.194c.159-.056.318-.111.477-.166l.241-.08c.146-.047.286-.093.428-.137.119-.038.239-.073.358-.11q.146-.045.3-.088l.28-.08a30.768,30.768,0,0,1,4-.839l.273-.037.333-.043.382-.045h.008c.125-.014.249-.027.374-.039l.3-.029.261-.022c.114-.009.227-.018.341-.025H321c.243-.016.488-.031.731-.042q.421-.019.846-.027c.131,0,.262,0,.393-.005h.439c.132,0,.262,0,.393.005.283.005.564.015.846.027.246.011.491.026.731.042h.035c.114.007.227.015.341.025l.261.022.3.029c.124.012.249.025.374.039h.013l.382.045.333.043.273.037a30.762,30.762,0,0,1,4,.839l.28.08.3.088.358.11c.143.045.286.091.428.137l.241.08c.159.055.319.11.477.166q.265.094.53.194c.184.069.366.14.548.213.11.043.219.088.328.132s.219.09.327.136.219.093.325.14h0q.347.151.69.312l.027.012q.165.077.328.156a31.5,31.5,0,0,1,3.966,2.28q.313.211.62.43.618.439,1.215.909l.11.087.11.088.187.146.185.152.292.243q.726.614,1.412,1.268h0c.182.175.366.351.542.529s.355.36.529.542h0q.658.687,1.268,1.412l.243.292.152.185.146.187.088.11.087.11q.469.6.909,1.215.219.307.43.62a31.554,31.554,0,0,1,2.28,3.966q.08.164.156.328c0,.009.008.018.012.027q.16.344.312.69a.006.006,0,0,0,0,0l.14.325c.045.105.091.219.136.327s.088.219.132.328c.073.182.146.366.213.548s.131.353.194.53c.057.159.112.318.166.477.027.08.054.161.08.241.047.146.093.286.137.428.038.119.073.239.11.358q.045.146.088.3c.027.093.053.186.08.28a30.89,30.89,0,0,1,.839,4c.013.091.026.182.038.273.015.111.029.219.042.333s.03.255.045.382v.009c.014.124.027.249.039.373.009.1.02.2.029.3l.022.261c.01.114.018.227.025.34v.036c.016.243.031.488.042.731.012.281.022.563.027.846,0,.131,0,.262.005.393v.219C354.763,323.229,354.777,323.294,354.777,323.367Z" transform="translate(-281.083 -281.044)" fill="#284a67"/></g><path d="M1032.88,437.2a31.362,31.362,0,0,1,2.332,2.61,1.316,1.316,0,0,1-1.712-.128l-3.1-3.1a1.316,1.316,0,0,1-.129-1.712A31.345,31.345,0,0,1,1032.88,437.2Z" transform="translate(-954.71 -403.077)" fill="#d86466"/><path d="M1096.095,381.539q.7.7,1.369,1.442l-1.926,1.793a35.839,35.839,0,0,0-2.677-2.677l1.793-1.926Q1095.392,380.835,1096.095,381.539Z" transform="translate(-1012.963 -352.376)" fill="#284a67"/><path d="M1169.385,219.154l-8.073,7.515a42.653,42.653,0,0,0-3.032-3.032l7.515-8.073a2.539,2.539,0,0,1,3.655-.065h0a2.539,2.539,0,0,1-.066,3.655Z" transform="translate(-1073.6 -199.054)" fill="#284a67"/><path d="M1247.344,789.63c0,.1-.009.2-.014.3h0C1247.334,789.828,1247.34,789.73,1247.344,789.63Z" transform="translate(-1156.14 -731.901)" fill="#284a67"/><path d="M1247.335,742.607c0-.1-.01-.2-.015-.3h0C1247.326,742.409,1247.331,742.507,1247.335,742.607Z" transform="translate(-1156.13 -688.041)" fill="#284a67"/><path d="M1255.942,740.81q.05.991.05,1.988t-.05,1.988l-2.632-.094q.051-.944.05-1.894t-.05-1.894Z" transform="translate(-1161.682 -686.65)" fill="#284a67"/><path d="M1295.322,791.79c0,.089-.008.176-.012.265h0Z" transform="translate(-1200.612 -733.903)" fill="#284a67"/><path d="M1295.313,740.855l-.013-.265h0C1295.305,740.679,1295.309,740.766,1295.313,740.855Z" transform="translate(-1200.602 -686.447)" fill="#284a67"/><path d="M1343.308,791.2c-.005.146-.012.288-.018.433h0Q1343.3,791.416,1343.308,791.2Z" transform="translate(-1245.084 -733.357)" fill="#284a67"/><path d="M1343.29,739.313c-.006-.146-.012-.288-.02-.433h0C1343.278,739.025,1343.285,739.169,1343.29,739.313Z" transform="translate(-1245.065 -684.862)" fill="#284a67"/><path d="M1362.894,735.8h0a2.541,2.541,0,0,1-2.632,2.538l-11.022-.394q.053-1.065.053-2.144t-.053-2.144l11.022-.393a2.541,2.541,0,0,1,2.632,2.538Z" transform="translate(-1250.599 -679.65)" fill="#284a67"/><path d="M1032.88,1032.876a31.368,31.368,0,0,1-2.61,2.332,1.316,1.316,0,0,1,.129-1.712l3.1-3.1a1.316,1.316,0,0,1,1.712-.128A31.346,31.346,0,0,1,1032.88,1032.876Z" transform="translate(-954.711 -954.707)" fill="#d86466"/><path d="M1037.836,1103.48c-.062.05-.124.1-.186.146h0Z" transform="translate(-961.789 -1022.806)" fill="#284a67"/><path d="M1048.093,1080.72q-.687.658-1.412,1.268Q1047.409,1081.374,1048.093,1080.72Z" transform="translate(-970.159 -1001.71)" fill="#284a67"/><path d="M1096.095,1096.095q-.7.7-1.442,1.369l-1.793-1.927a35.833,35.833,0,0,0,2.677-2.677l1.926,1.793Q1096.8,1095.392,1096.095,1096.095Z" transform="translate(-1012.963 -1012.962)" fill="#284a67"/><path d="M1121.61,1158.86l-.11.1h0Z" transform="translate(-1039.509 -1074.137)" fill="#284a67"/><path d="M1154.455,1192.05c-.088.081-.176.162-.265.243h0Z" transform="translate(-1069.809 -1104.901)" fill="#284a67"/><path d="M1158.96,1121.471l-.1.11.1-.11Z" transform="translate(-1074.137 -1039.481)" fill="#284a67"/><path d="M1192.293,1154.181c-.08.089-.162.177-.243.265.081-.088.162-.176.242-.266Z" transform="translate(-1104.901 -1069.799)" fill="#284a67"/><path d="M1169.44,1169.44h0a2.539,2.539,0,0,1-3.655-.065l-7.515-8.073a42.638,42.638,0,0,0,3.032-3.032l8.073,7.515a2.539,2.539,0,0,1,.066,3.655Z" transform="translate(-1073.591 -1073.591)" fill="#284a67"/><path d="M742.607,1247.344c-.1,0-.2-.009-.3-.014h0Z" transform="translate(-688.041 -1156.14)" fill="#284a67"/><path d="M789.927,1247.33h0l-.3.014Z" transform="translate(-731.901 -1156.139)" fill="#284a67"/><path d="M742.8,1255.992q-1,0-1.988-.05l.094-2.632q.941.049,1.894.05t1.894-.05l.094,2.632Q743.8,1255.992,742.8,1255.992Z" transform="translate(-686.65 -1161.682)" fill="#284a67"/><path d="M738.88,1343.27c.146.008.292.014.433.02-.146-.005-.288-.012-.433-.018Z" transform="translate(-684.862 -1245.065)" fill="#284a67"/><path d="M740.864,1295.322l-.264-.012h0Z" transform="translate(-686.456 -1200.612)" fill="#284a67"/><path d="M792.055,1295.3l-.265.012.265-.013Z" transform="translate(-733.903 -1200.603)" fill="#284a67"/><path d="M791.633,1343.27h0l-.433.018Q791.416,1343.282,791.633,1343.27Z" transform="translate(-733.357 -1245.065)" fill="#284a67"/><path d="M735.807,1362.894h0a2.541,2.541,0,0,1-2.538-2.632l.394-11.022q1.065.053,2.144.053t2.144-.053l.393,11.022a2.541,2.541,0,0,1-2.538,2.632Z" transform="translate(-679.659 -1250.599)" fill="#284a67"/><path d="M439.812,1035.209a31.18,31.18,0,0,1-4.942-4.942,1.316,1.316,0,0,1,1.712.128l3.1,3.1A1.316,1.316,0,0,1,439.812,1035.209Z" transform="translate(-403.077 -954.707)" fill="#d86466"/><path d="M226.66,1161.3l-7.515,8.073a2.539,2.539,0,0,1-3.655.065h0a2.539,2.539,0,0,1,.065-3.655l8.073-7.515A42.663,42.663,0,0,0,226.66,1161.3Z" transform="translate(-199.045 -1073.591)" fill="#284a67"/><path d="M375.87,1121.61l-.1-.11h0Z" transform="translate(-348.298 -1039.509)" fill="#284a67"/><path d="M413.13,1158.95h0l-.11-.1Z" transform="translate(-382.825 -1074.128)" fill="#284a67"/><path d="M384.774,1095.537l-1.793,1.926q-.739-.664-1.442-1.369t-1.369-1.442l1.926-1.793A35.839,35.839,0,0,0,384.774,1095.537Z" transform="translate(-352.376 -1012.963)" fill="#284a67"/><path d="M13.652,733.662q-.053,1.065-.053,2.144t.053,2.144l-11.02.394A2.541,2.541,0,0,1,0,735.807H0a2.54,2.54,0,0,1,2.632-2.538Z" transform="translate(0 -679.659)" fill="#284a67"/><path d="M192.5,791.633h0c-.007-.146-.013-.292-.018-.433Q192.487,791.416,192.5,791.633Z" transform="translate(-178.408 -733.357)" fill="#284a67"/><path d="M192.48,738.88c-.008.146-.014.292-.02.433.005-.146.012-.288.018-.433Z" transform="translate(-178.39 -684.862)" fill="#284a67"/><path d="M240.562,792.055h0c0-.088-.009-.176-.012-.265C240.552,791.878,240.557,791.966,240.562,792.055Z" transform="translate(-222.964 -733.903)" fill="#284a67"/><path d="M240.543,740.59c-.005.089-.01.176-.013.265,0-.089.007-.176.012-.265Z" transform="translate(-222.945 -686.447)" fill="#284a67"/><path d="M248.632,742.8q0,.95.05,1.894l-2.632.094q-.05-.99-.05-1.988t.05-1.988l2.632.094Q248.632,741.847,248.632,742.8Z" transform="translate(-228.015 -686.65)" fill="#284a67"/><path d="M288.5,789.927h0c-.005-.1-.01-.2-.014-.3C288.494,789.73,288.5,789.828,288.5,789.927Z" transform="translate(-267.399 -731.901)" fill="#284a67"/><path d="M288.495,742.31c-.005.1-.01.2-.015.3,0-.1.009-.2.014-.3Z" transform="translate(-267.39 -688.041)" fill="#284a67"/><path d="M430.676,495.8c-.05.062-.1.124-.146.187h0C430.575,495.924,430.625,495.862,430.676,495.8Z" transform="translate(-399.055 -459.553)" fill="#284a67"/><path d="M439.2,470q-.658.686-1.268,1.412Q438.542,470.684,439.2,470Z" transform="translate(-405.914 -435.639)" fill="#284a67"/><path d="M455.819,462.53c-.178.178-.355.36-.529.542q.239-.251.485-.5Z" transform="translate(-422.004 -428.715)" fill="#284a67"/><path d="M439.683,436.582l-3.1,3.1a1.316,1.316,0,0,1-1.712.128,31.184,31.184,0,0,1,4.942-4.942A1.316,1.316,0,0,1,439.683,436.582Z" transform="translate(-403.077 -403.077)" fill="#d86466"/><path d="M223.637,226.66l-8.073-7.515a2.539,2.539,0,0,1-.065-3.655h0a2.539,2.539,0,0,1,3.655.065l7.514,8.073a42.669,42.669,0,0,0-3.032,3.032Z" transform="translate(-199.054 -199.045)" fill="#284a67"/><path d="M340.932,378.18c-.081.088-.162.176-.242.266h0C340.766,378.356,340.847,378.268,340.932,378.18Z" transform="translate(-315.783 -350.532)" fill="#284a67"/><path d="M378.446,340.64l-.266.246.265-.243Z" transform="translate(-350.532 -315.736)" fill="#284a67"/><path d="M384.774,382.1a35.85,35.85,0,0,0-2.677,2.677l-1.926-1.793q.665-.739,1.369-1.442t1.442-1.369Z" transform="translate(-352.376 -352.376)" fill="#284a67"/><path d="M742.607,288.48l-.3.014h0C742.409,288.489,742.507,288.484,742.607,288.48Z" transform="translate(-688.041 -267.39)" fill="#284a67"/><path d="M789.927,288.494h0l-.3-.014C789.73,288.484,789.828,288.489,789.927,288.494Z" transform="translate(-731.901 -267.39)" fill="#284a67"/><path d="M742.8,246q1,0,1.988.05l-.094,2.632q-.944-.05-1.894-.05t-1.894.05l-.094-2.632Q741.8,246,742.8,246Z" transform="translate(-686.65 -228.015)" fill="#284a67"/><path d="M739.313,192.46c-.146.006-.288.012-.433.02h0C739.025,192.472,739.169,192.465,739.313,192.46Z" transform="translate(-684.862 -178.39)" fill="#284a67"/><path d="M740.864,240.52l-.264.013h0Z" transform="translate(-686.456 -222.936)" fill="#284a67"/><path d="M792.055,240.523h0l-.265-.013Z" transform="translate(-733.903 -222.927)" fill="#284a67"/><path d="M791.633,192.46h0c-.146-.008-.292-.014-.433-.02Z" transform="translate(-733.357 -178.371)" fill="#284a67"/><path d="M738.336,2.632l-.394,11.022q-1.064-.056-2.144-.056t-2.144.053l-.394-11.02A2.541,2.541,0,0,1,735.8,0h0a2.541,2.541,0,0,1,2.538,2.632Z" transform="translate(-679.65)" fill="#284a67"/><g transform="translate(32.257 51.706)"><path d="M446.729,709.31A2.845,2.845,0,0,1,448,710.371a3.24,3.24,0,0,1,0,3.276,2.829,2.829,0,0,1-1.276,1.067,4.747,4.747,0,0,1-1.953.372h-1.949v2.492h-1.6V708.94h3.553A4.783,4.783,0,0,1,446.729,709.31Zm-.439,3.973a1.756,1.756,0,0,0,0-2.539,2.472,2.472,0,0,0-1.592-.444h-1.875v3.43H444.7a2.478,2.478,0,0,0,1.592-.447Z" transform="translate(-441.22 -708.816)" fill="#284a67"/><path d="M608.19,767.783a1,1,0,0,1-.292-.753.993.993,0,0,1,.292-.731,1.058,1.058,0,0,1,1.45-.006,1,1,0,0,1,.284.738,1.024,1.024,0,0,1-.284.753,1.068,1.068,0,0,1-1.45,0Z" transform="translate(-595.712 -761.713)" fill="#d86466"/><path d="M703.074,715.849a3.989,3.989,0,0,1-1.474-.753l.555-1.243a4.37,4.37,0,0,0,1.3.682,4.729,4.729,0,0,0,1.548.265,2.674,2.674,0,0,0,1.437-.308.937.937,0,0,0,.475-.814.787.787,0,0,0-.265-.61,1.854,1.854,0,0,0-.673-.376q-.407-.136-1.11-.309a12.93,12.93,0,0,1-1.6-.472,2.633,2.633,0,0,1-1.048-.731,1.977,1.977,0,0,1-.439-1.351,2.306,2.306,0,0,1,.388-1.3,2.648,2.648,0,0,1,1.17-.932,4.692,4.692,0,0,1,1.918-.345,6.2,6.2,0,0,1,1.559.2,4.305,4.305,0,0,1,1.316.567l-.505,1.243a4.981,4.981,0,0,0-1.184-.506,4.424,4.424,0,0,0-1.2-.173,2.5,2.5,0,0,0-1.412.321.99.99,0,0,0-.463.852.77.77,0,0,0,.265.6,1.931,1.931,0,0,0,.673.37q.406.136,1.111.309A11.714,11.714,0,0,1,707,711.5a2.717,2.717,0,0,1,1.055.731,1.932,1.932,0,0,1,.439,1.332,2.273,2.273,0,0,1-.389,1.3,2.6,2.6,0,0,1-1.176.927,4.85,4.85,0,0,1-1.925.345A6.587,6.587,0,0,1,703.074,715.849Z" transform="translate(-682.564 -707.25)" fill="#284a67"/><path d="M862.151,767.783a1.007,1.007,0,0,1-.292-.753,1,1,0,0,1,.292-.731,1.058,1.058,0,0,1,1.45-.006,1,1,0,0,1,.284.738,1.017,1.017,0,0,1-.284.753,1.068,1.068,0,0,1-1.45,0Z" transform="translate(-831.105 -761.713)" fill="#d86466"/><path d="M973.451,717.576l-.012-5.724-2.839,4.737h-.716l-2.837-4.663v5.65H965.52V708.94h1.32l3.43,5.724,3.367-5.724h1.32l.012,8.636Z" transform="translate(-927.189 -708.816)" fill="#284a67"/></g><rect width="4" height="108" rx="2" transform="translate(119.213 2.147)" fill="#284a67"/></svg>